<?xml version="1.0" encoding="utf-8"?>
<!-- Generator: Adobe Illustrator 16.0.0, SVG Export Plug-In . SVG Version: 6.00 Build 0)  -->
<!DOCTYPE svg PUBLIC "-//W3C//DTD SVG 1.1//EN" "http://www.w3.org/Graphics/SVG/1.1/DTD/svg11.dtd">
<svg version="1.1" xmlns="http://www.w3.org/2000/svg" xmlns:xlink="http://www.w3.org/1999/xlink" x="0px" y="0px"
	 width="1000.637px" height="1000.678px" viewBox="0 0 1000.637 1000.678" enable-background="new 0 0 1000.637 1000.678"
	 xml:space="preserve">
<g id="图层_1">
	<g>
		<path fill="#D81E06" d="M677.818,165.294v-58.455V60.826h-47.707H402.818h-47.707v46.013v58.455H56.905v48.032H942.73v-48.032
			H677.818z M402.818,165.294v-58.455h227.293v58.455H402.818z"/>
		<polygon fill="#D81E06" points="771.817,886.839 260.056,886.839 260.056,254.839 213.255,254.839 213.255,886.839 
			213.255,935.278 260.056,935.278 771.817,935.278 818.619,935.278 818.619,886.839 818.619,254.839 771.817,254.839 		"/>
		<rect x="355.111" y="333.839" fill="#D81E06" width="47.707" height="473"/>
		<rect x="492.611" y="333.839" fill="#D81E06" width="47.707" height="473"/>
		<rect x="630.111" y="333.839" fill="#D81E06" width="47.707" height="473"/>
	</g>
</g>
<g id="图层_2">
</g>
</svg>
