<?xml version="1.0" encoding="utf-8"?>
<!-- Generator: Adobe Illustrator 16.0.0, SVG Export Plug-In . SVG Version: 6.00 Build 0)  -->
<!DOCTYPE svg PUBLIC "-//W3C//DTD SVG 1.1//EN" "http://www.w3.org/Graphics/SVG/1.1/DTD/svg11.dtd">
<svg version="1.1" id="图层_2" xmlns="http://www.w3.org/2000/svg" xmlns:xlink="http://www.w3.org/1999/xlink" x="0px" y="0px"
	 width="1000.637px" height="1000.678px" viewBox="15.167 -16.333 1000.637 1000.678"
	 enable-background="new 15.167 -16.333 1000.637 1000.678" xml:space="preserve">
<g>
	<path fill="#CCCCCC" d="M950.735,482.304c0-241.06-195.417-436.478-436.479-436.478c-241.06,0-436.478,195.418-436.478,436.478
		c0,241.061,195.418,436.479,436.478,436.479C755.318,918.782,950.735,723.365,950.735,482.304z M514.255,868.534
		c-213.309,0-386.23-172.922-386.23-386.231c0-213.309,172.921-386.23,386.23-386.23c213.311,0,386.232,172.921,386.232,386.23
		C900.488,695.613,727.566,868.534,514.255,868.534z"/>
	<polygon fill="#CCCCCC" points="358.636,669.348 515.5,511.876 673.58,669.956 699.724,641.989 542.252,485.124 700.94,327.044 
		673.58,300.292 515.5,458.372 358.028,300.292 330.668,326.436 488.748,485.124 331.276,641.989 	"/>
</g>
</svg>
