<?xml version="1.0" encoding="utf-8"?>
<!-- Generator: Adobe Illustrator 16.0.0, SVG Export Plug-In . SVG Version: 6.00 Build 0)  -->
<!DOCTYPE svg PUBLIC "-//W3C//DTD SVG 1.1//EN" "http://www.w3.org/Graphics/SVG/1.1/DTD/svg11.dtd">
<svg version="1.1" id="图层_1" xmlns="http://www.w3.org/2000/svg" xmlns:xlink="http://www.w3.org/1999/xlink" x="0px" y="0px"
	 width="1000.637px" height="1000.678px" viewBox="0 0 1000.637 1000.678" enable-background="new 0 0 1000.637 1000.678"
	 xml:space="preserve">
<g>
	<g>
		<path fill="#F8D056" d="M514.257,45.826c-241.06,0-436.478,195.417-436.478,436.478c0,241.061,195.418,436.479,436.478,436.479
			c241.061,0,436.479-195.418,436.479-436.479C950.735,241.244,755.317,45.826,514.257,45.826z M538.064,692.794h-46.97v-50.02
			h46.97V692.794z M633.834,424.394c-6.92,12.61-21.96,29.69-45.14,51.24c-25.22,24-40.67,41.689-46.36,53.07
			c-5.699,11.39-8.54,30.3-8.54,56.729h-42.09c0.81-23.99,4.67-44.225,11.59-60.694c6.91-16.471,22.056-36.695,45.445-60.695
			c23.38-23.99,38.021-40.965,43.92-50.935c5.89-9.961,8.845-22.466,8.845-37.516c0-22.77-7.425-41.07-22.265-54.899
			c-14.85-13.82-34.875-20.74-60.085-20.74c-54.5,0-84.18,32.13-89.06,96.38h-39.65c0.81-24.801,3.965-44.225,9.455-58.255
			c5.49-14.03,14.735-26.84,27.755-38.43c13.01-11.59,27.545-20.13,43.615-25.621c16.06-5.49,32.635-8.235,49.715-8.235
			c36.189,0,65.775,10.275,88.755,30.805c22.97,20.54,34.465,48.094,34.465,82.655C644.204,396.744,640.744,411.794,633.834,424.394
			z"/>
	</g>
</g>
</svg>
