<?xml version="1.0" encoding="utf-8"?>
<!-- Generator: Adobe Illustrator 16.0.0, SVG Export Plug-In . SVG Version: 6.00 Build 0)  -->
<!DOCTYPE svg PUBLIC "-//W3C//DTD SVG 1.1//EN" "http://www.w3.org/Graphics/SVG/1.1/DTD/svg11.dtd">
<svg version="1.1" xmlns="http://www.w3.org/2000/svg" xmlns:xlink="http://www.w3.org/1999/xlink" x="0px" y="0px"
	 width="1000.637px" height="1000.678px" viewBox="15.167 -16.333 1000.637 1000.678"
	 enable-background="new 15.167 -16.333 1000.637 1000.678" xml:space="preserve">
<g id="图形">
</g>
<g id="图层_5">
	<g>
		<path fill="#CCCCCC" d="M950.735,482.304c0-241.06-195.417-436.478-436.479-436.478c-241.06,0-436.478,195.418-436.478,436.478
			c0,241.061,195.418,436.479,436.478,436.479C755.318,918.782,950.735,723.365,950.735,482.304z M514.255,868.534
			c-213.309,0-386.23-172.922-386.23-386.231c0-213.309,172.921-386.23,386.23-386.23c213.311,0,386.232,172.921,386.232,386.23
			C900.488,695.613,727.566,868.534,514.255,868.534z"/>
		<rect x="491.094" y="642.775" fill="#CCCCCC" width="46.97" height="50.02"/>
		<path fill="#CCCCCC" d="M519.154,299.955c25.211,0,45.236,6.919,60.086,20.74c14.84,13.83,22.264,32.13,22.264,54.9
			c0,15.05-2.953,27.555-8.844,37.515c-5.9,9.97-20.541,26.945-43.92,50.935c-23.391,24-38.535,44.225-45.445,60.695
			c-6.92,16.471-10.78,36.705-11.59,60.695h42.09c0-26.43,2.84-45.34,8.539-56.73c5.691-11.38,21.141-29.07,46.361-53.07
			c23.18-21.55,38.219-38.63,45.139-51.24c6.91-12.601,10.371-27.65,10.371-45.14c0-34.56-11.494-62.115-34.465-82.655
			c-22.98-20.53-52.565-30.805-88.756-30.805c-17.08,0-33.655,2.745-49.715,8.235c-16.069,5.49-30.604,14.03-43.615,25.62
			c-13.02,11.59-22.265,24.4-27.755,38.43c-5.49,14.03-8.645,33.455-9.455,58.255h39.65
			C434.974,332.085,464.654,299.955,519.154,299.955z"/>
	</g>
</g>
</svg>
