<?xml version="1.0" encoding="utf-8"?>
<!-- Generator: Adobe Illustrator 16.0.0, SVG Export Plug-In . SVG Version: 6.00 Build 0)  -->
<!DOCTYPE svg PUBLIC "-//W3C//DTD SVG 1.1//EN" "http://www.w3.org/Graphics/SVG/1.1/DTD/svg11.dtd">
<svg version="1.1" xmlns="http://www.w3.org/2000/svg" xmlns:xlink="http://www.w3.org/1999/xlink" x="0px" y="0px"
	 width="1000.637px" height="1000.678px" viewBox="15.167 -16.333 1000.637 1000.678"
	 enable-background="new 15.167 -16.333 1000.637 1000.678" xml:space="preserve">
<g id="图形" display="none">
	<path display="inline" fill="#CCCCCC" d="M514.256,45.826c-241.06,0-436.478,195.418-436.478,436.478
		c0,241.061,195.418,436.479,436.478,436.479c241.062,0,436.479-195.418,436.479-436.479
		C950.735,241.244,755.318,45.826,514.256,45.826z M514.255,868.534c-213.309,0-386.23-172.922-386.23-386.231
		c0-213.309,172.921-386.23,386.23-386.23c213.311,0,386.232,172.921,386.232,386.23
		C900.488,695.613,727.566,868.534,514.255,868.534z"/>
</g>
<g id="图层_6" display="none">
	<circle display="inline" fill="#CCCCCC" cx="515.485" cy="482.304" r="436.478"/>
</g>
<g id="error" display="none">
	<g display="inline">
		<path fill="#CCCCCC" d="M700.94,327.044l-158.688,158.08l157.472,156.864l-26.145,27.968L515.5,511.876L358.636,669.348
			l-27.36-27.359l157.472-156.864l-158.08-158.688l27.36-26.144L515.5,458.372l158.08-158.08L700.94,327.044z"/>
	</g>
</g>
<g id="success" display="none">
	<g display="inline">
		<path fill="#CCCCCC" d="M799.771,318.233l-345.869,456.89l-146.4-258.03l-70.76,24.4l-12.81-34.16l101.26-37.21l134.81,231.8
			l339.769-444.08V318.233z"/>
	</g>
</g>
<g id="warning" display="none">
	<g display="inline">
		<path fill="#CCCCCC" d="M538.054,695.694h-46.97v-50.021h46.97V695.694z M535.615,407.164l-7.93,184.22h-26.84l-7.32-183.61
			v-137.86h42.09V407.164z"/>
	</g>
</g>
<g id="help" display="none">
	<g display="inline">
		<path fill="#CCCCCC" d="M390.444,396.335c0.81-24.8,3.965-44.225,9.455-58.255c5.49-14.03,14.735-26.84,27.755-38.43
			c13.01-11.59,27.545-20.13,43.615-25.62c16.06-5.49,32.635-8.235,49.715-8.235c36.19,0,65.775,10.275,88.756,30.805
			c22.971,20.54,34.465,48.095,34.465,82.655c0,17.49-3.461,32.54-10.371,45.14c-6.92,12.61-21.959,29.69-45.139,51.24
			c-25.221,24-40.67,41.69-46.361,53.07c-5.699,11.391-8.539,30.301-8.539,56.73h-42.09c0.81-23.99,4.67-44.225,11.59-60.695
			c6.91-16.47,22.055-36.695,45.445-60.695c23.379-23.99,38.02-40.965,43.92-50.935c5.891-9.96,8.844-22.465,8.844-37.515
			c0-22.77-7.424-41.07-22.264-54.9c-14.85-13.82-34.875-20.74-60.086-20.74c-54.5,0-84.18,32.13-89.06,96.38H390.444z
			 M538.064,692.794h-46.97v-50.02h46.97V692.794z"/>
	</g>
</g>
<g id="search">
	<path fill="#CCCCCC" d="M839.757,769.344l-232.91-232.911c35.437-44.966,56.586-101.718,56.586-163.413
		c0-145.919-118.291-264.213-264.212-264.213c-145.921,0-264.213,118.293-264.213,264.213
		c0,145.921,118.292,264.213,264.213,264.213c64.276,0,123.184-22.962,168.989-61.117l232.387,232.389L839.757,769.344z
		 M399.22,588.986c-119.273,0-215.965-96.692-215.965-215.967c0-119.274,96.691-215.965,215.965-215.965
		c119.274,0,215.967,96.691,215.967,215.965C615.187,492.293,518.495,588.986,399.22,588.986z"/>
</g>
</svg>
