<?xml version="1.0" encoding="utf-8"?>
<!-- Generator: Adobe Illustrator 16.0.0, SVG Export Plug-In . SVG Version: 6.00 Build 0)  -->
<!DOCTYPE svg PUBLIC "-//W3C//DTD SVG 1.1//EN" "http://www.w3.org/Graphics/SVG/1.1/DTD/svg11.dtd">
<svg version="1.1" xmlns="http://www.w3.org/2000/svg" xmlns:xlink="http://www.w3.org/1999/xlink" x="0px" y="0px"
	 width="1000.637px" height="1000.678px" viewBox="15.167 -16.333 1000.637 1000.678"
	 enable-background="new 15.167 -16.333 1000.637 1000.678" xml:space="preserve">
<g id="图形">
</g>
<g id="图层_3">
	<g>
		<path fill="#CCCCCC" d="M950.735,482.304c0-241.06-195.417-436.478-436.479-436.478c-241.06,0-436.478,195.418-436.478,436.478
			c0,241.061,195.418,436.479,436.478,436.479C755.318,918.782,950.735,723.365,950.735,482.304z M514.255,868.534
			c-213.309,0-386.23-172.922-386.23-386.231c0-213.309,172.921-386.23,386.23-386.23c213.311,0,386.232,172.921,386.232,386.23
			C900.488,695.613,727.566,868.534,514.255,868.534z"/>
		<polygon fill="#CCCCCC" points="799.771,318.233 799.771,257.843 460.002,701.923 325.192,470.123 223.932,507.333 
			236.742,541.493 307.502,517.093 453.902,775.123 		"/>
	</g>
</g>
</svg>
