<?xml version="1.0" encoding="utf-8"?>
<!-- Generator: Adobe Illustrator 16.0.0, SVG Export Plug-In . SVG Version: 6.00 Build 0)  -->
<!DOCTYPE svg PUBLIC "-//W3C//DTD SVG 1.1//EN" "http://www.w3.org/Graphics/SVG/1.1/DTD/svg11.dtd">
<svg version="1.1" xmlns="http://www.w3.org/2000/svg" xmlns:xlink="http://www.w3.org/1999/xlink" x="0px" y="0px"
	 width="1000.637px" height="1000.678px" viewBox="15.167 -16.333 1000.637 1000.678"
	 enable-background="new 15.167 -16.333 1000.637 1000.678" xml:space="preserve">
<g id="图形" display="none">
</g>
<g id="图层_4">
	<g>
		<path fill="#CCCCCC" d="M514.256,45.826c-241.06,0-436.478,195.418-436.478,436.478c0,241.061,195.418,436.479,436.478,436.479
			c241.062,0,436.479-195.418,436.479-436.479C950.735,241.244,755.318,45.826,514.256,45.826z M514.255,868.534
			c-213.309,0-386.23-172.922-386.23-386.231c0-213.309,172.921-386.23,386.23-386.23c213.311,0,386.232,172.921,386.232,386.23
			C900.488,695.613,727.566,868.534,514.255,868.534z"/>
		<polygon fill="#CCCCCC" points="527.685,591.384 535.615,407.164 535.615,269.914 493.525,269.914 493.525,407.774 
			500.845,591.384 		"/>
		<rect x="491.084" y="645.673" fill="#CCCCCC" width="46.97" height="50.021"/>
	</g>
</g>
</svg>
